<?xml version="1.0" standalone="no"?>
<!DOCTYPE svg PUBLIC "-//W3C//DTD SVG 20010904//EN"
 "http://www.w3.org/TR/2001/REC-SVG-20010904/DTD/svg10.dtd">
<svg version="1.0" xmlns="http://www.w3.org/2000/svg"
 width="1407.000000pt" height="1407.000000pt" viewBox="0 0 1407.000000 1407.000000"
 preserveAspectRatio="xMidYMid meet">
<metadata>
Created by potrace 1.14, written by Peter Selinger 2001-2017
</metadata>
<g transform="translate(0.000000,1407.000000) scale(0.100000,-0.100000)"
fill="#000000" stroke="none">
<path d="M6321 13825 c-137 -39 -203 -155 -153 -268 24 -55 77 -92 186 -133
136 -51 186 -77 221 -115 30 -33 35 -46 35 -86 0 -117 -127 -183 -273 -142
-49 13 -111 69 -146 131 -41 71 -45 56 -25 -78 4 -27 12 -35 52 -52 224 -95
451 -7 452 176 0 101 -56 149 -275 232 -102 38 -140 62 -165 102 -62 103 19
217 155 218 86 0 125 -17 183 -77 29 -31 55 -53 58 -51 2 3 2 30 -2 61 -7 56
-7 56 -53 72 -68 23 -185 28 -250 10z"/>
<path d="M7330 13793 c-50 -10 -149 -62 -192 -102 -120 -110 -162 -320 -93
-465 47 -100 162 -183 285 -206 100 -19 285 -6 325 24 8 6 23 38 31 70 16 59
11 86 -10 52 -60 -101 -161 -145 -290 -125 -117 19 -206 87 -260 199 -29 61
-31 72 -31 180 0 109 2 118 33 181 50 104 126 159 239 174 129 17 299 -63 328
-154 14 -46 35 -10 35 62 0 36 -3 39 -52 62 -105 48 -245 67 -348 48z"/>
<path d="M5411 13704 c-118 -24 -216 -46 -219 -49 -3 -3 4 -12 15 -20 29 -20
34 -40 98 -351 56 -278 64 -341 43 -362 -6 -6 -9 -15 -5 -18 6 -6 242 38 470
88 l49 10 -7 61 c-4 34 -10 66 -12 71 -3 4 -17 -16 -32 -45 -33 -69 -71 -90
-210 -118 -118 -23 -147 -26 -156 -12 -3 6 -21 85 -39 178 -23 114 -31 170
-24 175 18 10 188 41 234 42 32 1 49 -5 68 -23 25 -23 26 -23 26 -4 0 37 -23
133 -32 133 -5 0 -13 -11 -18 -25 -5 -13 -23 -31 -39 -40 -29 -15 -204 -55
-240 -55 -13 0 -23 31 -48 157 -18 86 -32 158 -30 160 9 9 206 43 249 43 56 0
80 -10 126 -53 36 -35 39 -28 16 49 -14 48 -18 54 -42 53 -15 -1 -123 -21
-241 -45z"/>
<path d="M8410 13573 c0 -21 -55 -98 -213 -301 -197 -254 -231 -291 -280 -306
-29 -9 -12 -22 48 -35 55 -13 83 -8 56 8 -23 14 -4 58 61 145 34 44 64 85 68
89 4 5 77 -11 163 -35 l155 -43 6 -45 c4 -25 9 -87 13 -138 5 -83 4 -94 -13
-107 -10 -8 -17 -15 -14 -15 3 0 35 -9 72 -19 66 -19 92 -15 64 8 -8 7 -19 33
-25 59 -10 42 -91 708 -91 746 0 12 -10 16 -35 16 -31 0 -35 -3 -35 -27z m30
-241 c12 -100 20 -189 18 -196 -2 -11 -32 -6 -136 24 -73 20 -135 40 -138 43
-5 4 227 317 233 313 0 -1 11 -83 23 -184z"/>
<path d="M4576 13474 c-180 -44 -318 -181 -346 -345 -28 -164 63 -352 206
-424 105 -53 258 -44 393 25 63 31 161 102 174 125 8 14 -7 117 -20 139 -9 13
-23 -17 -23 -49 -1 -79 -83 -174 -181 -210 -84 -30 -188 -26 -264 10 -81 39
-144 105 -191 200 -37 75 -39 84 -39 174 0 82 4 103 25 144 31 61 77 102 156
139 110 51 219 49 303 -8 19 -13 37 -22 39 -19 2 2 -6 29 -19 59 l-23 56 -65
-1 c-36 0 -92 -7 -125 -15z"/>
<path d="M3663 13070 c-61 -35 -67 -50 -20 -50 22 0 41 -8 55 -22 11 -13 75
-115 142 -228 67 -113 131 -219 142 -237 l19 -32 -118 49 c-65 27 -236 98
-381 158 l-263 110 -39 -22 c-42 -22 -56 -52 -19 -41 34 11 63 -26 214 -280
178 -300 178 -300 170 -336 -4 -16 -4 -29 -1 -29 13 0 106 62 106 71 0 5 -13
9 -29 9 -22 0 -38 10 -61 38 -34 39 -301 484 -295 490 2 2 176 -69 387 -157
212 -89 390 -161 397 -161 19 0 16 5 -157 298 -199 335 -195 327 -189 369 3
18 3 33 -1 33 -4 0 -31 -14 -59 -30z"/>
<path d="M2565 12310 c-15 -29 -15 -32 5 -48 15 -12 52 -112 126 -342 92 -283
105 -331 100 -372 -3 -27 -3 -48 0 -48 10 0 94 72 94 81 0 5 -11 9 -25 9 -18
0 -29 9 -41 33 -23 42 -74 208 -68 218 8 14 231 199 240 199 11 0 183 -89 215
-111 15 -11 26 -24 25 -31 0 -7 2 -15 5 -18 8 -6 112 80 105 87 -3 3 -22 7
-42 9 -23 2 -151 63 -347 165 -172 89 -326 170 -344 181 l-32 19 -16 -31z
m397 -249 c4 -4 -43 -48 -103 -100 -61 -51 -115 -89 -119 -84 -7 8 -120 344
-120 358 0 6 326 -160 342 -174z"/>
<path d="M1987 11703 c-33 -9 -66 -31 -109 -72 -73 -68 -189 -201 -188 -216 1
-5 11 -9 23 -7 31 3 49 -10 281 -211 233 -203 270 -240 261 -268 -11 -34 18
-19 63 32 43 51 53 76 27 65 -27 -10 -62 12 -182 115 -65 56 -120 104 -122
105 -9 7 69 89 105 110 58 34 105 31 263 -21 76 -25 150 -45 165 -45 28 0 96
56 96 79 0 16 -15 13 -31 -5 -17 -21 -61 -14 -216 36 -141 46 -164 48 -224 18
l-44 -23 20 40 c28 57 27 148 -3 196 -42 69 -108 95 -185 72z m102 -91 c65
-48 85 -128 49 -197 -19 -36 -108 -140 -119 -140 -4 0 -62 47 -128 103 l-120
104 32 40 c91 114 206 150 286 90z"/>
<path d="M1296 10869 c-149 -235 -149 -234 -113 -225 35 8 44 4 334 -181 226
-144 290 -193 278 -213 -3 -5 -1 -11 5 -15 11 -7 93 113 85 125 -2 3 -17 5
-33 2 -16 -2 -43 3 -59 12 -67 34 -268 168 -266 177 2 5 24 41 49 81 63 100
111 148 146 148 43 0 34 15 -33 55 -59 36 -84 41 -59 10 8 -9 10 -29 7 -51 -7
-44 -127 -236 -144 -230 -30 12 -253 159 -253 167 0 6 34 61 75 124 80 124
116 155 178 155 20 0 37 4 37 8 0 8 -83 52 -98 52 -5 0 -66 -90 -136 -201z"/>
<path d="M711 9729 c-53 -144 -153 -441 -148 -445 3 -3 15 -1 26 5 27 15 31
14 346 -97 310 -108 322 -114 336 -149 5 -14 11 -24 14 -22 5 6 175 490 175
499 0 10 -120 63 -127 56 -3 -3 8 -21 25 -40 49 -57 50 -95 2 -237 -43 -131
-53 -149 -80 -149 -17 0 -318 105 -328 114 -7 7 55 181 81 229 14 24 31 40 50
45 15 4 28 11 28 16 0 12 -130 60 -139 52 -3 -3 2 -14 11 -24 26 -28 20 -84
-19 -200 -21 -59 -38 -108 -39 -109 -3 -4 -310 104 -310 109 0 2 18 56 40 118
48 136 86 185 153 196 69 11 56 21 -60 49 -23 6 -29 3 -37 -16z"/>
<path d="M12493 9225 c-3 -9 2 -23 10 -33 35 -39 112 -271 141 -428 17 -91 31
-254 29 -326 -4 -107 -70 -275 -163 -414 -49 -73 -156 -185 -392 -411 -47 -45
-103 -109 -124 -143 -31 -51 -41 -60 -58 -55 -130 42 -270 49 -394 20 l-74
-17 -26 25 c-83 80 -227 78 -375 -4 -29 -16 -95 -49 -147 -74 -129 -62 -125
-59 -128 -87 -6 -46 83 -92 233 -124 160 -33 307 -18 389 39 35 25 67 94 68
147 0 35 4 40 32 49 111 35 246 38 361 9 40 -11 50 -17 48 -33 -1 -17 -70
-204 -78 -213 -1 -1 -15 4 -31 13 -70 36 -173 5 -299 -90 -67 -50 -144 -83
-190 -80 -33 2 -65 -10 -65 -25 0 -15 188 -106 248 -120 85 -20 140 -5 247 67
57 38 62 33 50 -43 -4 -29 -11 -44 -21 -44 -26 0 -110 -88 -141 -148 -58 -109
-68 -239 -28 -364 26 -80 58 -88 103 -25 13 18 45 61 71 97 26 36 63 96 82
135 29 59 34 80 34 141 0 65 -3 76 -34 119 -33 46 -33 48 -27 118 8 84 42 259
58 302 28 73 104 224 137 270 43 59 182 196 193 189 4 -3 8 -17 8 -32 0 -21
-10 -33 -42 -52 -83 -51 -110 -195 -56 -311 38 -82 96 -169 112 -169 25 0 104
181 126 286 10 53 10 69 -4 118 -14 46 -24 62 -56 84 -21 15 -41 36 -44 47
-15 51 -6 70 57 130 158 150 295 351 338 495 l14 45 6 -80 c3 -44 5 -260 3
-480 -2 -412 -12 -589 -54 -905 -11 -85 -20 -157 -20 -159 0 -2 -6 1 -12 6
-21 17 -149 -1 -203 -28 -89 -44 -219 -188 -278 -308 -28 -56 -35 -100 -17
-102 6 -1 16 -2 23 -3 6 -1 41 6 77 15 36 10 76 20 90 22 86 16 197 62 237
100 13 11 26 18 29 14 3 -3 -15 -99 -41 -214 l-46 -208 -47 -45 c-199 -189
-318 -297 -382 -349 l-75 -61 -6 47 c-4 27 -12 60 -18 75 -15 41 -74 93 -137
124 -52 25 -66 27 -262 35 -219 8 -241 5 -221 -33 6 -10 54 -63 107 -116 66
-66 121 -110 172 -139 70 -40 168 -73 215 -73 17 0 16 -3 -10 -20 -58 -39
-217 -108 -295 -129 -107 -28 -291 -34 -464 -16 -64 7 -68 9 -85 44 -23 44
-153 171 -201 196 -56 29 -129 44 -184 39 -83 -9 -149 -44 -363 -199 -26 -18
-30 -47 -8 -69 8 -8 50 -22 93 -32 44 -10 119 -38 175 -66 54 -27 121 -54 149
-62 76 -19 190 -10 254 20 32 16 94 76 94 93 0 4 28 4 63 -1 34 -4 124 -8 200
-8 l137 -1 -42 -33 c-39 -31 -45 -32 -65 -20 -53 33 -134 11 -200 -56 -70 -70
-141 -245 -146 -360 -2 -55 -2 -55 27 -53 16 1 52 17 80 36 28 18 59 36 69 40
35 13 134 86 166 123 55 62 74 132 58 209 -6 28 -2 33 54 73 33 24 82 50 109
57 l49 13 -13 -32 c-24 -59 -39 -176 -32 -263 6 -91 23 -170 38 -179 12 -8 38
15 38 33 0 16 43 81 84 128 73 83 135 221 136 300 0 22 -7 53 -15 69 -9 16
-14 30 -13 31 2 1 41 26 88 54 161 99 255 172 390 301 154 148 210 200 214
200 13 0 -151 -526 -204 -655 -4 -11 -18 -47 -30 -80 -27 -71 -40 -104 -69
-168 -20 -44 -23 -47 -44 -35 -12 6 -61 12 -108 12 -78 1 -89 -1 -130 -28 -24
-16 -56 -41 -70 -55 -36 -35 -55 -50 -114 -91 -59 -41 -95 -71 -95 -80 0 -14
52 -29 123 -36 62 -5 88 -3 146 15 68 21 156 66 193 98 15 13 16 13 12 -4 -3
-10 -49 -103 -102 -208 -95 -185 -98 -190 -157 -231 -69 -49 -355 -194 -381
-194 -2 0 -4 11 -4 25 0 38 -50 152 -86 194 -36 41 -188 136 -204 126 -12 -7
-3 -164 12 -215 12 -40 60 -114 95 -148 13 -12 22 -26 19 -31 -7 -11 -99 -36
-224 -61 -127 -25 -122 -25 -122 3 0 35 -44 118 -90 170 -40 45 -117 89 -266
151 -22 10 -53 28 -69 42 -50 43 -64 26 -39 -49 44 -132 123 -251 209 -314
l30 -22 -35 -2 c-19 0 -44 -2 -55 -3 -11 -2 -56 -6 -100 -10 -44 -4 -88 -9
-98 -12 -21 -6 -42 4 -192 93 -120 71 -259 122 -334 123 -13 0 -44 19 -74 45
-67 61 -127 87 -212 93 -62 4 -80 0 -160 -31 -49 -19 -113 -42 -142 -51 -78
-26 -82 -37 -27 -82 26 -22 56 -47 68 -57 34 -30 119 -65 186 -77 127 -23 254
18 305 97 19 29 23 31 65 26 101 -12 190 -48 363 -150 l69 -40 -49 -7 c-26 -4
-92 -19 -145 -33 l-97 -25 -46 22 c-39 19 -58 22 -115 18 -81 -6 -141 -33
-207 -92 -27 -24 -64 -50 -83 -60 -56 -26 -87 -53 -75 -65 19 -19 237 -62 306
-60 69 2 143 26 192 63 32 25 61 87 55 119 -4 23 0 26 71 45 92 25 108 29 236
46 135 19 245 29 245 23 0 -4 -30 -23 -67 -44 -201 -111 -511 -331 -597 -422
-23 -24 -38 -31 -68 -31 -49 0 -114 -41 -190 -121 -73 -77 -101 -131 -122
-234 -9 -44 -19 -92 -22 -107 -5 -24 -3 -28 14 -28 11 0 27 6 34 13 30 29 113
80 190 117 119 55 161 89 193 155 32 64 30 119 -4 166 l-20 27 37 36 c84 80
180 156 197 156 4 0 4 -12 1 -26 -4 -15 -7 -58 -7 -97 0 -65 4 -79 42 -154 43
-84 65 -106 76 -75 3 9 24 60 46 112 54 129 61 222 22 294 -14 27 -24 50 -23
51 36 28 205 133 269 168 l86 47 111 0 c266 0 658 120 960 293 l63 37 -32 -58
c-81 -142 -339 -537 -369 -562 -3 -3 -20 -24 -37 -48 -30 -41 -32 -42 -38 -21
-13 40 -70 85 -151 120 -70 30 -89 33 -169 34 -83 0 -95 -3 -158 -35 -38 -19
-76 -42 -85 -51 -25 -22 -164 -114 -185 -122 -36 -13 -10 -31 104 -71 110 -38
118 -40 244 -40 130 -1 161 5 250 44 109 49 119 51 104 33 -8 -10 -18 -23 -24
-29 -5 -6 -25 -29 -43 -52 -90 -111 -173 -203 -316 -350 -117 -119 -131 -131
-140 -113 -6 10 -31 35 -55 55 -139 116 -218 121 -452 31 -48 -18 -113 -36
-145 -40 -114 -13 -131 -19 -116 -41 11 -16 186 -112 245 -134 102 -37 180
-52 242 -47 61 6 122 23 139 38 20 18 25 8 7 -10 -46 -46 -327 -270 -430 -343
-144 -102 -166 -114 -225 -125 -101 -17 -332 -16 -414 2 -74 17 -81 22 -60 43
17 17 14 117 -7 189 -31 109 -95 186 -220 266 -121 77 -133 73 -110 -41 8 -38
17 -86 21 -107 3 -21 9 -48 14 -59 24 -61 75 -165 96 -192 l23 -31 -92 23
c-50 13 -112 26 -137 30 -32 5 -57 18 -89 46 -24 21 -73 52 -108 70 -59 29
-68 31 -138 25 -41 -4 -91 -13 -110 -21 -20 -9 -36 -15 -38 -15 -3 1 -53 -18
-112 -41 -27 -11 -77 -24 -110 -28 -33 -4 -60 -12 -60 -17 0 -14 159 -122 231
-157 91 -43 202 -63 272 -49 102 20 194 82 209 139 3 15 11 21 22 18 9 -2 52
-12 96 -21 44 -9 123 -29 175 -45 240 -72 252 -74 443 -74 l178 1 -166 -109
c-91 -59 -176 -113 -188 -119 -12 -6 -60 -35 -107 -63 -146 -90 -194 -118
-235 -141 -22 -12 -69 -39 -105 -60 -74 -43 -151 -85 -156 -85 -2 0 -11 15
-20 32 -42 84 -137 124 -268 115 -198 -15 -237 -20 -234 -31 2 -7 35 -41 74
-77 91 -83 147 -102 319 -109 6 0 -1 -6 -15 -14 -14 -7 -45 -25 -70 -38 -25
-14 -76 -42 -115 -63 -38 -21 -95 -52 -125 -68 -30 -17 -71 -38 -90 -48 l-35
-17 -11 43 c-14 59 -55 107 -118 141 -76 42 -386 44 -394 3 -3 -19 87 -115
148 -156 61 -40 99 -53 205 -67 l90 -12 -40 -21 c-22 -11 -80 -41 -129 -67
-81 -43 -91 -46 -118 -35 -70 29 -319 -25 -469 -102 -49 -25 -109 -82 -166
-159 -51 -69 -103 -169 -96 -187 6 -15 25 -17 38 -4 6 5 35 16 65 25 52 16 95
20 317 31 130 6 196 30 261 93 57 56 103 145 110 213 l5 49 71 36 c39 20 75
40 81 45 22 21 20 5 -7 -51 -49 -101 -38 -205 38 -365 15 -31 31 -54 36 -53
12 4 74 144 105 238 17 51 26 100 27 151 1 67 -2 80 -26 117 l-28 41 23 12
c101 53 204 109 267 144 41 23 107 59 145 80 39 20 94 51 123 67 30 16 55 28
57 26 4 -3 -32 -283 -38 -302 -2 -5 -33 -8 -70 -7 -129 5 -200 -51 -268 -209
-52 -122 -48 -144 16 -100 25 17 76 42 113 54 76 26 147 61 157 76 17 28 25 5
19 -58 -9 -91 -17 -109 -52 -117 -40 -8 -100 -68 -126 -124 -33 -73 -27 -181
18 -296 33 -86 63 -126 73 -98 2 7 29 52 60 100 85 135 115 207 116 278 0 61
-21 119 -51 141 -14 10 -13 25 1 135 42 322 77 553 84 560 4 4 69 42 143 85
74 42 161 92 193 110 33 19 71 42 85 52 50 34 52 33 28 -15 -59 -118 -70 -269
-29 -393 24 -73 42 -74 75 -3 15 32 42 74 59 93 86 96 129 188 129 276 0 60
-23 111 -61 138 -18 12 -4 23 179 143 l199 130 -18 -76 c-31 -128 -42 -331
-33 -581 l9 -225 -42 3 c-48 4 -92 -8 -180 -49 -72 -35 -141 -106 -183 -189
-32 -63 -64 -175 -55 -190 8 -13 35 -13 35 0 0 25 98 80 223 124 78 28 144 57
160 72 44 40 51 25 43 -100 -5 -92 -22 -190 -63 -363 -3 -14 -15 -23 -38 -27
-58 -11 -140 -110 -153 -187 -8 -42 7 -127 28 -154 4 -5 15 -32 25 -60 35 -95
45 -96 84 -11 16 35 48 92 72 127 40 58 44 70 47 136 3 59 0 78 -16 105 l-20
33 33 145 c19 80 34 139 34 132 2 -26 61 -157 83 -183 13 -15 36 -43 52 -63
50 -64 59 -52 51 72 -4 59 -6 130 -4 157 9 129 3 191 -23 236 -36 61 -67 87
-113 97 l-40 8 -6 149 c-3 83 -5 267 -4 410 2 225 5 272 24 350 30 128 34 135
112 190 39 28 117 85 172 127 56 42 102 76 103 75 1 -1 -9 -34 -22 -74 -60
-179 -50 -350 28 -493 17 -30 35 -61 41 -67 17 -23 36 -14 43 22 3 19 26 87
51 152 99 262 105 283 101 353 -3 53 -9 73 -36 112 -21 30 -44 51 -67 59 -19
7 -35 16 -35 20 0 3 28 30 62 60 94 82 104 91 233 219 l120 119 -3 -49 c-6
-82 37 -199 108 -291 106 -138 133 -161 143 -121 3 9 4 91 2 182 -2 148 -4
172 -27 236 -33 90 -46 110 -85 135 l-33 20 96 112 c108 126 117 136 158 192
17 22 33 42 36 45 3 3 35 46 70 95 36 50 71 96 77 103 11 11 13 -32 14 -220 0
-239 2 -317 19 -661 14 -272 14 -267 -9 -267 -10 0 -50 -9 -87 -21 -57 -18
-77 -30 -126 -80 -56 -57 -75 -89 -118 -198 -30 -77 -11 -93 50 -42 41 33 79
53 135 71 54 17 120 64 141 100 10 16 20 27 24 25 3 -2 4 -31 3 -66 -2 -56 -6
-66 -36 -98 -19 -20 -47 -56 -63 -81 -24 -38 -29 -55 -29 -115 0 -44 7 -86 17
-112 10 -24 16 -43 14 -43 -3 0 13 -36 35 -81 38 -77 53 -90 71 -58 27 50 109
244 119 283 16 64 4 126 -34 177 -18 23 -37 49 -43 58 -15 20 -26 451 -12 451
19 0 144 -53 207 -88 36 -20 85 -55 109 -78 43 -42 44 -44 29 -67 -26 -40 -31
-91 -12 -146 20 -61 46 -95 95 -126 37 -24 219 -85 252 -85 23 0 23 25 -2 120
-38 143 -102 246 -168 271 -13 5 -44 9 -70 9 -42 1 -52 6 -99 49 l-51 48 34
16 c63 31 100 111 124 275 14 91 5 107 -37 63 -16 -16 -65 -47 -109 -67 -105
-49 -154 -107 -154 -186 0 -23 -8 -22 -65 2 -26 11 -57 20 -70 20 -21 0 -23 5
-29 83 -3 45 -8 145 -12 222 l-6 140 30 -29 c44 -41 95 -44 227 -11 193 46
215 54 215 76 0 13 -20 29 -71 54 -38 19 -82 43 -97 54 -15 10 -46 25 -70 32
-57 17 -132 -6 -185 -57 -21 -20 -40 -35 -42 -32 -2 2 -5 114 -6 248 l-2 245
85 130 c92 140 102 157 188 313 l57 103 6 -54 c11 -108 86 -210 251 -343 96
-76 121 -80 122 -19 1 74 -24 259 -46 330 -45 145 -133 234 -222 222 -21 -3
-38 -4 -38 -2 0 1 24 54 53 116 102 216 153 334 214 499 81 213 99 266 145
413 l44 138 49 -83 c27 -46 64 -109 83 -140 39 -64 41 -56 -31 -132 -145 -154
-167 -264 -100 -508 21 -76 42 -78 78 -6 14 28 48 85 75 125 57 86 110 192
110 222 0 12 4 21 9 21 21 0 33 -98 38 -316 l5 -232 -51 -17 c-56 -18 -92 -55
-125 -125 -32 -69 -29 -215 8 -340 67 -233 78 -260 97 -260 25 0 74 70 137
194 69 138 92 211 92 294 0 107 -46 219 -100 244 l-26 11 0 206 c0 113 -4 220
-8 236 l-7 30 18 -25 c43 -61 131 -215 124 -220 -38 -27 -39 -168 -1 -255 25
-58 81 -142 136 -204 48 -53 191 -171 209 -171 13 0 38 24 31 31 -7 7 -15 70
-26 209 -17 213 -39 279 -112 347 -61 56 -104 76 -160 77 -40 1 -49 5 -60 26
-7 14 -47 79 -89 145 -42 66 -109 179 -149 250 -40 72 -83 147 -96 167 -13 21
-24 41 -24 45 0 5 -15 31 -33 58 -19 28 -46 73 -61 101 l-27 51 24 89 c14 49
31 115 38 147 l12 58 31 -58 c32 -60 109 -145 161 -179 48 -32 211 -104 234
-104 29 0 27 13 -18 94 -21 39 -58 116 -82 170 -47 110 -94 166 -163 196 -43
19 -99 18 -123 -2 -12 -9 -13 -7 -9 13 42 181 86 435 107 604 16 137 21 149
42 97 27 -67 120 -152 220 -200 48 -23 94 -42 102 -42 25 0 31 29 23 113 -16
158 -65 273 -142 332 -38 29 -114 45 -164 34 -18 -3 -35 -3 -38 2 -3 5 -1 78
5 162 6 83 13 246 16 361 2 115 7 211 10 214 3 3 5 -1 5 -9 0 -23 66 -154 111
-221 70 -104 144 -197 220 -278 34 -36 82 -114 115 -187 35 -76 100 -278 110
-339 3 -18 14 -63 25 -101 25 -90 25 -99 -15 -133 -71 -63 -84 -174 -33 -298
31 -78 72 -131 159 -207 71 -63 118 -81 118 -48 6 277 1 442 -12 474 -22 52
-57 85 -108 102 l-45 15 -28 103 c-26 98 -74 274 -84 311 -3 9 26 -13 63 -50
37 -37 67 -71 65 -77 -11 -42 -12 -112 0 -152 22 -81 151 -185 278 -223 14 -4
69 -24 122 -43 53 -19 102 -31 108 -27 14 8 2 67 -24 125 -8 17 -28 66 -45
111 -49 131 -117 217 -208 263 -66 33 -114 37 -166 11 l-45 -21 -42 38 c-77
71 -222 284 -181 268 34 -14 198 -45 237 -45 43 0 234 43 266 60 31 17 23 27
-38 50 -75 28 -118 55 -172 107 -103 101 -275 97 -372 -8 l-37 -40 -43 53
c-24 29 -51 62 -61 73 -88 100 -163 233 -227 402 -26 69 -31 96 -31 168 l0 86
58 -49 c53 -46 132 -99 211 -144 19 -11 59 -22 90 -25 l54 -6 -7 33 c-3 19
-36 81 -73 139 -118 188 -205 248 -315 218 -25 -7 -26 -5 -32 41 -3 26 -8 88
-11 137 -12 186 -33 293 -105 517 -47 149 -97 223 -117 173z m372 -909 c19 -8
51 -32 71 -53 42 -43 164 -222 164 -240 0 -49 -206 70 -312 180 -54 55 -47 63
18 21 51 -33 84 -39 84 -15 0 5 -15 16 -33 24 -18 9 -49 30 -68 47 -28 25 -31
32 -19 40 21 14 55 12 95 -4z m-526 -814 c13 -35 13 -53 3 -112 -11 -65 -76
-230 -91 -230 -7 0 -33 43 -73 119 -49 95 -33 226 33 265 l31 18 -6 -38 c-19
-134 -19 -146 0 -142 16 3 21 19 31 93 6 50 12 92 12 94 1 2 11 -3 23 -11 12
-8 29 -33 37 -56z m1040 -13 c39 -8 64 -23 113 -66 34 -31 81 -64 105 -75 23
-10 44 -22 47 -27 7 -11 -134 -41 -196 -41 -69 0 -223 37 -250 61 -23 19 -23
19 77 17 83 -3 100 -1 100 12 0 12 -22 16 -108 22 -60 3 -111 9 -114 12 -9 9
27 46 62 64 25 13 61 23 107 31 4 0 30 -4 57 -10z m-2039 -29 c19 -5 48 -20
64 -33 l29 -23 -113 -38 c-134 -44 -190 -71 -190 -91 0 -22 21 -19 82 12 29
15 93 39 141 54 100 31 106 28 87 -39 -34 -127 -244 -165 -490 -90 -55 17
-121 50 -118 58 4 12 315 170 363 185 50 16 100 18 145 5z m454 -324 c41 -17
48 -28 41 -59 -6 -22 -15 -25 -88 -36 -83 -11 -109 -23 -91 -41 5 -5 24 -6 49
0 59 14 105 13 100 -3 -6 -15 -76 -60 -147 -94 -70 -34 -137 -29 -236 17 l-74
34 61 20 c34 12 91 43 127 70 132 98 192 119 258 92z m1074 -41 c20 -9 47 -26
60 -38 42 -38 84 -140 96 -227 3 -19 8 -56 11 -82 3 -27 4 -48 0 -48 -3 0 -42
18 -87 41 -138 69 -218 173 -218 280 l1 54 28 -31 c16 -18 33 -40 39 -49 10
-19 32 -13 32 9 0 7 -16 31 -35 53 -19 22 -31 43 -28 47 11 11 63 6 101 -9z
m778 -145 c91 -52 142 -128 215 -322 18 -49 30 -90 28 -93 -7 -6 -206 67 -276
102 -64 30 -123 84 -149 134 -15 30 -22 134 -9 147 6 6 185 -175 185 -188 0
-5 7 -10 15 -10 41 0 -8 74 -114 172 -71 65 -72 68 -50 77 47 19 102 12 155
-19z m-1852 -192 c-9 -59 -36 -163 -46 -175 -14 -17 -2 -44 15 -37 18 6 53
111 63 183 l7 52 19 -33 c16 -25 19 -45 16 -92 -6 -82 -38 -152 -127 -270
l-74 -101 -19 55 c-22 63 -25 176 -8 242 14 54 52 119 97 169 44 49 63 51 57
7z m815 -139 c-9 -43 -12 -46 -55 -57 -49 -13 -154 -76 -154 -91 0 -23 23 -20
65 9 35 24 113 60 130 60 1 0 0 -12 -3 -27 -9 -47 -64 -103 -137 -141 -50 -25
-304 -96 -313 -87 -10 9 34 91 83 155 119 157 177 197 304 215 47 6 87 11 88
11 1 -1 -3 -22 -8 -47z m849 -28 c71 -37 77 -58 80 -300 l2 -214 -22 19 c-160
136 -210 215 -216 344 -3 68 -1 79 25 118 24 37 53 56 53 35 0 -22 29 -184 35
-193 9 -15 35 -12 35 4 0 7 -4 26 -10 42 -10 31 -29 164 -23 164 2 0 20 -9 41
-19z m-765 -435 c57 -24 104 -83 149 -190 23 -56 49 -112 58 -126 9 -14 20
-33 23 -42 5 -14 2 -16 -16 -9 -155 61 -248 139 -310 260 -20 41 -35 76 -32
79 2 3 36 -28 74 -68 60 -62 91 -80 91 -51 0 4 -31 39 -68 79 -37 39 -63 74
-58 76 21 9 57 6 89 -8z m-939 -407 c48 -12 109 -50 142 -88 27 -30 49 -110
39 -141 -6 -20 -8 -19 -45 13 -43 39 -148 83 -163 68 -15 -15 1 -30 47 -42 42
-10 116 -61 116 -79 0 -13 -103 -2 -158 16 -74 25 -151 72 -240 149 -13 11
-44 43 -68 72 l-45 52 167 -5 c91 -2 185 -9 208 -15z m-1037 -251 c46 -16 76
-39 141 -103 45 -45 82 -87 82 -94 0 -14 -47 -8 -195 26 -60 14 -148 28 -193
30 -76 5 -84 3 -80 -12 2 -14 15 -19 58 -21 45 -2 233 -38 383 -72 l29 -7 -21
-26 c-29 -38 -78 -58 -159 -65 -89 -8 -136 4 -265 68 -53 26 -121 53 -150 59
-96 19 -131 41 -89 56 17 7 69 45 128 94 33 27 105 65 151 79 50 15 121 10
180 -12z m1892 -175 c-5 -32 -13 -72 -18 -90 -7 -24 -6 -35 4 -43 18 -15 31 9
40 75 11 77 21 87 39 43 33 -78 14 -144 -87 -300 -31 -48 -64 -102 -73 -120
-17 -32 -17 -32 -25 -10 -31 82 -39 258 -15 313 13 31 130 189 139 189 2 0 0
-26 -4 -57z m-859 -79 c0 -60 -25 -133 -71 -205 -23 -35 -44 -66 -48 -69 -4
-3 -25 -28 -47 -57 l-41 -52 -7 46 c-23 169 17 362 79 377 15 4 29 5 31 3 3
-2 -7 -37 -21 -76 -27 -75 -27 -118 0 -90 13 14 65 161 65 185 0 7 8 14 18 16
23 5 41 -28 42 -78z m-512 -90 c13 -4 22 -10 20 -15 -2 -4 -28 -34 -59 -66
-70 -73 -119 -141 -119 -165 0 -31 18 -20 54 34 20 28 61 78 92 110 49 50 59
57 67 42 11 -20 2 -86 -18 -123 -24 -45 -69 -85 -146 -131 -41 -24 -94 -56
-119 -71 -56 -35 -58 -29 -30 82 38 150 108 262 184 295 36 15 43 16 74 8z
m856 -223 c16 -6 10 -10 -30 -20 -74 -18 -154 -58 -154 -75 0 -17 20 -21 36
-7 10 10 119 51 135 51 6 0 -9 -18 -33 -39 -45 -42 -113 -80 -187 -106 -44
-15 -147 -20 -189 -9 -22 6 -21 8 15 32 21 14 67 51 103 82 103 91 123 100
210 99 41 0 84 -4 94 -8z m983 -53 c100 -50 144 -130 158 -288 4 -36 10 -106
16 -157 5 -51 9 -97 9 -103 0 -14 -77 48 -148 120 -107 108 -169 225 -173 328
-2 49 7 92 20 92 12 0 147 -270 170 -342 24 -71 37 -90 47 -64 12 32 -71 232
-155 374 -17 29 -31 55 -31 57 0 12 47 3 87 -17z m-311 -295 c-3 -27 -8 -110
-12 -186 -6 -132 -5 -139 12 -135 22 4 20 -6 30 211 5 107 11 156 18 154 18
-6 55 -67 66 -108 30 -109 16 -197 -51 -332 -48 -98 -112 -207 -120 -207 -3 0
-27 71 -52 158 -41 144 -45 165 -44 258 2 93 4 104 32 150 18 29 45 56 65 66
56 28 63 25 56 -29z m-656 -80 c59 -40 97 -105 124 -209 18 -73 42 -271 33
-280 -9 -9 -84 53 -174 142 -108 106 -139 188 -114 299 l7 30 22 -50 c33 -73
82 -145 98 -145 22 0 17 21 -16 70 -25 37 -70 137 -70 155 0 12 68 3 90 -12z
m-885 -84 c30 -17 68 -47 84 -66 37 -44 74 -141 69 -179 -3 -29 -3 -29 -37 21
-19 28 -36 52 -37 54 -2 2 -10 1 -18 -2 -12 -5 -9 -16 15 -61 22 -41 27 -56
16 -56 -22 0 -103 86 -126 134 -20 41 -41 186 -27 186 3 0 31 -14 61 -31z
m-640 -98 c86 -32 179 -86 209 -122 56 -67 104 -179 77 -179 -6 0 -11 4 -11 9
0 25 -183 176 -201 165 -18 -11 -8 -23 59 -76 118 -94 126 -124 18 -73 -82 39
-158 121 -208 224 -23 47 -44 91 -47 96 -3 6 6 3 19 -6 14 -9 52 -26 85 -38z
m-898 -25 c34 -16 70 -37 79 -47 16 -18 16 -19 -12 -19 -44 0 -167 -11 -182
-16 -8 -2 -12 -10 -10 -16 4 -10 36 -12 124 -10 l119 4 -33 -35 c-99 -102
-324 -83 -461 39 l-44 40 59 18 c33 10 73 25 91 33 107 50 174 52 270 9z m280
-380 c8 -7 15 -3 -89 -56 -80 -40 -102 -60 -80 -74 4 -2 25 7 47 20 49 30 142
74 157 74 16 0 3 -66 -19 -89 -25 -26 -99 -57 -153 -65 -26 -3 -80 0 -125 8
-145 27 -147 27 -134 42 6 8 17 14 23 14 6 0 27 14 46 31 86 75 145 104 225
112 32 3 93 -7 102 -17z m1120 -166 c68 -16 188 -75 206 -103 l15 -24 -101 5
c-148 6 -291 -18 -264 -44 3 -4 57 -1 120 5 127 13 241 6 197 -13 -14 -5 -47
-20 -75 -32 -88 -38 -119 -44 -246 -45 -82 0 -109 4 -192 32 l-97 32 52 35
c29 20 71 50 94 67 103 79 196 106 291 85z m-747 -82 c14 -50 4 -106 -38 -211
-25 -63 -37 -85 -44 -75 -23 33 -50 107 -55 149 -6 60 13 152 38 181 l20 23
-4 -73 c-5 -75 -1 -87 23 -72 10 6 14 30 15 84 0 74 0 75 17 53 10 -12 23 -39
28 -59z m-531 -298 c-55 -81 -65 -110 -38 -110 5 0 26 26 46 58 20 31 50 74
67 95 l31 39 17 -22 c26 -32 23 -95 -6 -145 -28 -47 -70 -78 -168 -123 -37
-17 -91 -47 -120 -66 -28 -20 -53 -34 -54 -33 -1 1 2 28 6 60 11 80 48 151
117 224 50 53 131 112 155 113 4 0 -20 -40 -53 -90z m2073 38 c18 -12 56 -34
86 -49 l54 -26 -149 -36 c-142 -35 -181 -37 -210 -14 -21 15 -5 26 47 33 27 4
58 12 67 20 17 12 17 13 -1 20 -10 4 -40 2 -68 -5 -85 -19 -92 -16 -50 25 20
20 51 43 67 51 41 18 118 10 157 -19z m-738 -224 c16 -16 36 -58 51 -107 23
-70 25 -95 24 -215 l-1 -136 -29 35 c-53 63 -116 164 -132 213 -19 57 -22 133
-6 190 l11 38 13 -25 c7 -15 20 -60 29 -102 19 -90 27 -107 44 -96 10 6 9 27
-8 101 -11 51 -25 101 -31 111 -14 27 4 23 35 -7z m-532 -95 c33 -17 127 -92
128 -102 0 -5 -19 -5 -42 -1 -63 12 -141 11 -145 -2 -3 -8 16 -14 49 -19 82
-10 109 -16 103 -24 -2 -4 -35 -23 -72 -42 -63 -32 -75 -34 -163 -34 -67 0
-111 6 -150 19 -71 24 -188 81 -220 106 l-25 20 40 1 c58 1 75 5 162 40 162
65 262 76 335 38z m1421 -130 c-17 -93 -44 -151 -81 -177 -30 -22 -82 -30 -82
-14 0 5 18 34 39 65 30 43 37 58 27 66 -14 12 -23 3 -76 -74 l-35 -50 -3 42
c-2 22 4 57 12 77 13 30 28 42 98 76 46 23 87 45 92 50 21 21 22 8 9 -61z
m-2668 -184 c34 -33 70 -80 82 -105 41 -88 56 -225 26 -225 -7 0 -33 42 -58
93 -41 83 -60 104 -78 86 -3 -4 16 -49 44 -100 27 -52 46 -94 41 -94 -4 0 -24
14 -45 31 -59 49 -127 190 -152 315 -8 44 -17 87 -19 96 -7 29 91 -30 159 -97z
m1255 -92 c45 -26 73 -87 73 -154 -1 -57 -13 -96 -127 -393 l-23 -58 -21 36
c-43 73 -57 135 -56 251 0 113 15 180 62 285 l21 44 7 -28 c4 -15 3 -58 -1
-95 -11 -98 -11 -120 0 -122 26 -3 52 161 35 221 -10 35 -8 36 30 13z m-1702
-110 c35 -21 62 -42 62 -48 0 -6 -55 -10 -145 -10 -124 0 -145 -2 -143 -15 3
-12 30 -15 161 -18 171 -3 180 -6 131 -55 -62 -62 -180 -90 -284 -68 -62 13
-163 60 -237 109 -29 19 -53 36 -53 38 0 1 19 7 43 12 23 6 89 28 147 51 89
34 116 40 181 41 70 0 80 -3 137 -37z m2597 3 c-64 -42 -82 -63 -68 -77 8 -8
28 1 67 30 31 23 56 39 56 35 0 -4 -11 -26 -24 -49 -29 -49 -80 -85 -156 -110
-30 -10 -67 -26 -82 -37 -16 -11 -28 -17 -28 -13 0 21 74 146 103 173 41 39
121 81 157 82 21 0 18 -5 -25 -34z m594 18 c36 -7 85 -53 111 -104 20 -39 74
-209 68 -215 -6 -7 -150 41 -195 64 -77 39 -122 142 -93 215 l11 30 55 -82
c30 -45 58 -82 63 -82 24 0 14 31 -30 96 -56 84 -55 91 10 78z m-522 -369 c-5
-80 -4 -95 9 -95 19 0 22 9 28 104 3 43 7 80 10 83 2 2 14 -10 26 -28 46 -63
37 -149 -29 -286 -16 -32 -31 -68 -35 -80 -4 -13 -12 -23 -17 -23 -5 0 -9 1
-9 3 0 1 -14 36 -31 77 -18 45 -33 102 -36 142 -5 60 -3 71 22 115 28 49 54
83 63 83 3 0 2 -43 -1 -95z m-1862 -211 c15 -32 16 -44 5 -98 -7 -33 -19 -74
-27 -91 -15 -29 -109 -154 -125 -165 -4 -3 -13 -21 -21 -39 l-14 -34 -14 54
c-21 82 -15 183 14 268 24 69 68 141 87 141 13 0 4 -113 -10 -140 -12 -22 -7
-50 9 -50 18 0 41 81 41 146 0 60 1 64 19 55 10 -6 26 -27 36 -47z m-895 -150
c44 -7 119 -61 120 -85 0 -4 -19 0 -42 8 -24 8 -64 17 -90 20 -39 5 -48 3 -48
-10 0 -11 21 -20 75 -32 116 -25 107 -39 -22 -33 -125 6 -160 18 -231 83 l-47
43 80 6 c44 4 87 8 95 10 18 3 62 -1 110 -10z m-599 -255 c59 -13 131 -71 148
-119 l10 -29 -41 29 c-48 35 -116 56 -131 41 -6 -6 12 -20 56 -41 68 -32 103
-60 74 -60 -9 0 -51 5 -94 10 -99 14 -181 53 -253 122 l-55 53 50 7 c61 7 166
2 236 -13z m1793 -155 c27 -10 19 -19 -54 -59 -64 -35 -80 -52 -64 -68 3 -3
35 10 70 30 72 39 80 32 37 -35 -29 -44 -65 -66 -163 -97 -88 -29 -174 -65
-193 -82 -34 -32 -30 -1 13 82 56 112 112 163 223 204 86 31 105 35 131 25z
m-1084 -81 c0 -5 -20 -21 -44 -36 -58 -37 -73 -55 -53 -63 10 -3 39 10 75 35
32 23 61 41 66 41 4 0 -2 -17 -14 -38 -25 -45 -97 -95 -160 -112 -25 -7 -63
-21 -84 -31 -22 -10 -41 -17 -43 -15 -6 5 52 127 69 146 28 32 58 52 95 66 42
14 93 18 93 7z m-500 -140 c0 -70 -35 -194 -76 -267 l-26 -47 -14 26 c-24 46
-54 155 -54 194 1 20 7 53 14 74 14 39 66 120 73 114 2 -2 -2 -28 -8 -57 -7
-32 -8 -55 -2 -61 15 -15 29 10 43 79 l13 63 18 -28 c13 -20 19 -47 19 -90z
m1728 54 c54 -49 61 -86 59 -280 l-2 -178 -23 28 c-52 61 -130 272 -117 313 6
20 8 21 26 4 10 -9 19 -23 19 -31 0 -14 26 -18 34 -5 8 14 -26 73 -56 95 -21
16 -28 29 -28 55 0 33 1 34 32 28 18 -3 43 -16 56 -29z m-2139 -46 c15 -10 16
-9 -72 -55 -145 -75 -176 -99 -143 -112 13 -5 176 75 231 112 35 25 44 18 34
-27 -22 -95 -89 -181 -171 -218 -47 -21 -83 -25 -298 -36 -58 -2 -132 -12
-164 -20 -32 -9 -60 -14 -62 -12 -6 6 68 121 108 170 22 26 59 60 82 76 79 54
251 108 401 125 17 1 32 4 35 4 3 1 11 -2 19 -7z m906 -238 c-6 -28 -48 -131
-66 -166 -10 -19 -4 -37 12 -37 11 0 74 134 84 179 10 46 23 47 41 5 22 -53
14 -117 -24 -195 -36 -73 -107 -189 -118 -192 -4 -1 -20 34 -35 78 -43 123
-36 221 22 293 19 24 68 58 88 61 2 1 0 -11 -4 -26z m1025 -278 c0 -2 -17 -38
-37 -80 -29 -58 -35 -77 -25 -87 15 -15 12 -18 60 77 40 78 41 79 51 52 22
-57 6 -125 -44 -196 -18 -25 -43 -66 -55 -91 l-23 -44 -33 79 c-27 63 -33 89
-29 123 7 60 86 172 122 172 7 0 13 -2 13 -5z"/>
<path d="M3410 8927 c0 -28 8 -38 64 -79 75 -54 117 -108 183 -233 27 -51 290
-727 608 -1560 l560 -1470 71 -3 71 -3 140 343 c77 189 225 551 328 806 104
254 192 462 195 462 3 0 154 -361 336 -802 l329 -803 73 -3 c39 -2 72 -1 72 2
0 11 1022 2841 1049 2907 57 135 58 135 66 39 3 -47 5 -652 3 -1345 -4 -1135
-6 -1267 -21 -1329 -23 -97 -58 -151 -117 -184 -44 -24 -50 -31 -50 -59 l0
-33 395 0 395 0 0 33 c0 29 -5 34 -47 54 -55 25 -95 78 -119 158 -25 80 -33
328 -34 969 l0 599 383 -6 c412 -6 522 -15 648 -52 138 -40 220 -111 268 -231
16 -43 23 -49 50 -52 l31 -3 0 370 0 371 -30 0 c-27 0 -33 -6 -55 -55 -49
-112 -113 -169 -238 -211 -122 -42 -281 -54 -689 -54 l-368 0 0 700 0 700 493
0 c271 0 529 -5 573 -10 273 -34 431 -136 565 -364 32 -55 38 -61 65 -58 16 2
29 4 30 5 0 1 -9 117 -20 257 l-21 255 -1182 3 -1183 2 0 -34 c0 -30 5 -36 48
-57 35 -18 53 -36 70 -69 21 -40 23 -55 19 -140 -3 -66 -13 -121 -32 -180 -30
-94 -852 -2368 -862 -2383 -5 -8 -646 1526 -646 1548 0 26 301 823 347 920 84
174 164 266 271 311 31 12 35 19 35 49 l0 35 -270 0 -270 0 0 -32 c1 -29 7
-37 53 -63 67 -39 90 -89 82 -185 -9 -101 -27 -159 -168 -547 -115 -314 -133
-359 -143 -340 -15 28 -236 570 -307 752 -91 231 -94 284 -22 326 29 17 35 27
35 55 l0 34 -370 0 -370 0 0 -33 c0 -30 7 -38 61 -73 79 -51 145 -138 219
-289 53 -108 520 -1223 520 -1242 0 -13 -505 -1243 -510 -1243 -4 0 -826 2142
-930 2425 -94 253 -97 336 -14 371 29 12 34 19 34 49 l0 35 -375 0 -375 0 0
-33z"/>
<path d="M1103 8308 c-18 -40 -52 -58 -190 -99 -140 -43 -186 -71 -214 -133
l-19 -41 0 33 c0 66 -50 146 -112 178 -15 8 -53 14 -84 14 -52 0 -59 -3 -94
-38 -28 -28 -44 -56 -59 -107 -23 -78 -52 -325 -38 -325 4 0 15 7 23 15 20 20
28 20 361 -15 297 -31 347 -41 357 -65 12 -33 24 -11 31 56 4 38 4 73 1 76 -3
4 -14 -1 -24 -10 -23 -21 -58 -21 -227 -2 -71 8 -134 15 -138 15 -5 0 -5 21
-2 48 19 142 47 170 220 223 170 53 179 56 205 84 17 18 21 32 18 71 -3 47 -4
48 -15 22z m-512 -145 c16 -10 39 -37 51 -61 18 -39 20 -55 15 -140 -4 -52 -8
-96 -9 -97 -7 -5 -317 31 -324 37 -13 14 16 151 43 200 45 83 141 110 224 61z"/>
<path d="M910 7393 c0 -5 17 -17 37 -28 20 -11 45 -31 55 -45 24 -33 38 -121
38 -242 0 -83 -2 -97 -17 -102 -10 -3 -93 -8 -184 -12 l-166 -7 -6 24 c-4 13
-7 75 -7 137 l0 114 31 29 c18 16 29 32 26 35 -7 8 -157 -7 -157 -15 0 -3 10
-11 22 -16 37 -16 50 -59 55 -190 l6 -122 -163 -6 c-90 -4 -165 -6 -167 -4 -1
2 -3 65 -4 140 -1 153 9 184 69 222 51 32 41 43 -30 33 -35 -6 -66 -13 -69
-16 -9 -11 15 -479 25 -489 5 -4 11 -2 13 5 10 27 54 33 326 47 374 19 373 19
398 -6 11 -11 23 -18 26 -15 7 7 -16 516 -23 528 -6 10 -134 11 -134 1z"/>
<path d="M393 6437 c-27 -6 -43 -15 -43 -25 0 -8 23 -134 51 -279 l52 -265 36
6 c20 3 46 6 59 6 35 0 26 16 -22 40 -29 14 -50 32 -60 54 -16 34 -41 135 -34
141 8 8 627 126 668 127 25 0 46 -4 48 -11 2 -6 9 -11 16 -11 10 0 10 16 -2
75 -15 77 -24 89 -42 56 -5 -11 -25 -24 -42 -30 -32 -10 -635 -131 -656 -131
-5 0 -15 28 -21 63 -13 74 -2 123 34 157 43 41 35 46 -42 27z"/>
<path d="M1220 5752 c-58 -19 -58 -22 2 -41 21 -7 48 -25 61 -41 28 -32 99
-233 95 -264 -3 -18 -46 -36 -308 -128 -301 -106 -355 -119 -378 -96 -23 23
-23 -1 -1 -71 22 -67 49 -96 49 -51 0 27 17 35 325 143 307 108 326 113 355
97 12 -6 24 -10 26 -7 5 5 -159 477 -166 476 -3 0 -30 -8 -60 -17z"/>
<path d="M1530 5033 c0 -31 -38 -82 -276 -369 -129 -155 -234 -285 -234 -288
0 -3 11 -13 25 -22 23 -15 27 -15 43 -1 13 12 99 24 360 51 312 33 346 34 384
21 23 -8 44 -12 47 -10 6 7 -46 99 -58 103 -6 2 -11 -5 -11 -16 0 -12 -11 -24
-27 -30 -40 -16 -233 -36 -243 -26 -4 5 -40 69 -79 143 l-70 134 85 104 c75
91 89 104 110 99 31 -8 30 -1 -7 67 -31 57 -49 72 -49 40z m-70 -491 c29 -56
51 -104 49 -105 -12 -10 -387 -41 -380 -32 4 5 61 74 126 153 l117 143 17 -28
c10 -15 41 -74 71 -131z"/>
<path d="M1790 3903 c-285 -97 -342 -114 -382 -110 -27 2 -48 1 -48 -3 0 -10
64 -90 72 -90 4 0 8 8 8 18 0 11 9 27 19 36 20 18 600 220 609 212 2 -3 -38
-80 -89 -172 l-94 -168 -115 -38 c-91 -31 -126 -38 -167 -35 -29 2 -53 1 -53
-3 0 -11 64 -90 72 -90 4 0 8 9 8 20 0 11 10 26 23 34 28 18 198 78 204 72 5
-5 -67 -142 -99 -188 -11 -16 -28 -28 -39 -28 -28 0 -24 -11 23 -71 l43 -53 7
43 c7 39 39 105 130 265 l33 60 164 48 c91 26 166 47 167 45 3 -3 -310 -524
-337 -560 -12 -16 -27 -26 -35 -23 -29 11 -22 -14 17 -63 22 -28 44 -51 49
-51 4 0 10 18 13 39 3 28 63 137 197 361 105 177 189 328 186 335 -6 16 9 19
-239 -54 l-168 -49 24 41 c93 163 177 316 177 326 0 21 -46 8 -380 -106z"/>
</g>
</svg>
